<svg width="70" height="24" viewBox="0 0 70 24" fill="none" xmlns="http://www.w3.org/2000/svg">
<g clip-path="url(#clip0_154_135)">
<path d="M1.18275 9.4039C1.43117 8.70711 1.78866 8.04061 2.24915 7.42258C3.26101 11.6942 6.70257 14.4572 11.4286 14.3663H13.925C15.6336 14.3663 16.8636 14.7965 17.615 15.6569C19.154 17.3534 19.2146 20.9889 17.2211 22.5157C14.1916 24.8424 9.68364 24.3516 7.10853 21.5402C8.48394 22.0068 10.2411 22.2431 12.3981 22.2431C15.5367 22.2431 17.0999 21.1949 17.0999 19.0924C17.0999 18.1411 16.8515 17.3837 16.3547 16.8081C15.8578 16.2325 15.052 15.9416 13.925 15.9416C10.7864 15.9841 7.96286 16.0507 5.35746 14.4087C3.3519 13.1848 1.97043 11.5003 1.18275 9.39784V9.4039ZM12.3678 20.6071C14.0704 20.5829 15.4761 20.4678 15.5428 19.0318C15.5428 18.5349 15.4276 18.1471 15.1913 17.8745C14.9611 17.5958 14.5248 17.4564 13.9008 17.4564H11.1863C6.87828 17.4988 2.83082 15.6447 0.710144 12.0032C0.716203 13.7725 1.3827 15.5902 2.59452 16.9596C2.76417 17.1595 2.9823 17.3776 3.17013 17.5655C4.58189 18.9469 6.89646 20.0376 8.53241 20.3405C9.5261 20.5162 10.8046 20.6011 12.3739 20.6011L12.3678 20.6071ZM16.8879 3.58719C18.5238 3.89014 20.8384 4.98078 22.2502 6.36224C22.3713 6.47737 22.4986 6.61067 22.6258 6.74397C22.6501 6.77426 22.6804 6.7985 22.7046 6.82273C22.7046 6.82273 22.7106 6.82879 22.7167 6.83485C22.7167 6.83485 22.7167 6.83485 22.7106 6.82879C22.7531 6.87727 22.7955 6.92574 22.8318 6.96815C22.8742 7.01662 22.9106 7.0651 22.953 7.11357C22.9409 7.09539 22.9227 7.07721 22.9106 7.05904C22.9288 7.07721 22.9409 7.10145 22.9591 7.11963C23.0015 7.17416 23.05 7.22869 23.0924 7.28322C23.1045 7.29534 23.1105 7.30746 23.1227 7.31958C24.1466 8.64046 24.7101 10.3067 24.7162 11.9245C22.5895 8.28903 18.5481 6.42889 14.2401 6.47131H11.5256C10.8955 6.47131 10.4653 6.33195 10.235 6.05323C9.99871 5.77451 9.88358 5.38673 9.88358 4.89595C9.95023 3.45995 11.3559 3.34483 13.0585 3.32059C14.6278 3.32059 15.9063 3.40542 16.9 3.58113L16.8879 3.58719ZM22.4198 6.5319C22.4198 6.5319 22.4683 6.58037 22.4925 6.60461C22.4865 6.59855 22.4743 6.58643 22.4683 6.58037L22.4198 6.5319ZM13.9916 11.2034H11.5195C9.38674 11.2034 7.7932 10.6218 6.72681 9.45237C5.66041 8.28297 5.12721 6.7682 5.12721 4.90201C5.12721 4.72629 5.13327 4.55664 5.14539 4.38699L3.60032 5.93205C3.7821 7.76189 4.44859 9.30695 5.60588 10.5551C6.97523 12.0335 8.94443 12.7788 11.5135 12.7788H13.9189C16.0457 12.7788 17.6453 13.3726 18.7117 14.5541C19.7781 15.7356 20.3113 17.2443 20.3113 19.0863C20.3113 19.256 20.3052 19.4256 20.2931 19.5892L21.8321 18.0502C21.6503 16.2325 20.9899 14.6995 19.8386 13.4453C18.4754 11.9548 16.5243 11.2156 13.9856 11.2156L13.9916 11.2034ZM20.0871 9.58567C17.4817 7.94366 14.6642 8.01031 11.5195 8.05273C10.3986 8.05273 9.58669 7.76189 9.08985 7.18628C8.593 6.61067 8.34458 5.84722 8.34458 4.90201C8.34458 2.79951 9.91388 1.75129 13.0464 1.75129C15.1974 1.75129 16.9606 1.98759 18.336 2.45414C15.7609 -0.357269 11.2529 -0.848054 8.2234 1.47863C6.22996 3.00552 6.29055 6.64096 7.82956 8.3375C8.58088 9.19789 9.81088 9.62809 11.5195 9.62809H14.0159C18.742 9.54326 22.1835 12.3001 23.1954 16.5718C23.6559 15.9538 24.0133 15.2873 24.2618 14.5905C23.4801 12.488 22.0926 10.8035 20.0871 9.57961V9.58567Z" fill="url(#paint0_linear_154_135)"/>
<path d="M38.2764 12.4756C38.5491 12.9119 38.6824 13.4754 38.6824 14.1419C38.6824 14.7539 38.5248 15.3234 38.2158 15.8263C37.9068 16.3292 37.4584 16.7291 36.8828 17.026C36.3072 17.3229 35.6104 17.4683 34.8046 17.4683C33.9987 17.4683 33.2837 17.3168 32.6778 17.026C32.0719 16.7291 31.5872 16.305 31.2418 15.7536C30.8965 15.2083 30.7147 14.5478 30.7026 13.7905V13.6996H32.6839V13.7905C32.696 14.3297 32.8838 14.8023 33.2474 15.184C33.6109 15.5658 34.126 15.7597 34.7803 15.7597C35.3862 15.7597 35.8649 15.6203 36.2042 15.3355C36.5375 15.0568 36.7011 14.7054 36.7011 14.257C36.7011 13.8813 36.6041 13.5723 36.4102 13.3239C36.2103 13.0755 35.8952 12.8452 35.4711 12.6392C35.0348 12.4332 34.4653 12.2151 33.7745 11.9909C32.8293 11.688 32.1204 11.2578 31.672 10.7124C31.2176 10.1671 30.9934 9.48851 30.9934 8.70083C30.9934 7.78591 31.3267 7.03459 31.9932 6.47715C32.6536 5.91972 33.5625 5.63494 34.7076 5.63494C35.8528 5.63494 36.7253 5.92578 37.4039 6.50139C38.0886 7.077 38.4461 7.88892 38.4642 8.9129V9.00379H36.4648V8.9129C36.4648 8.66448 36.392 8.41606 36.2527 8.17975C36.1133 7.94345 35.9073 7.7435 35.6407 7.58596C35.3802 7.42843 35.0469 7.34966 34.6591 7.34966C34.1744 7.33754 33.7685 7.45266 33.4413 7.69503C33.1201 7.93133 32.9626 8.24034 32.9626 8.6463C32.9626 9.14315 33.1565 9.52487 33.5503 9.80359C33.9563 10.0944 34.641 10.3913 35.568 10.7003C36.1618 10.8942 36.695 11.1305 37.1555 11.4092C37.622 11.688 37.9916 12.0515 38.2643 12.4878L38.2764 12.4756ZM46.8561 15.6082H44.3476V11.1123C44.3476 10.4277 44.184 9.91265 43.8629 9.59152C43.5418 9.27039 43.0267 9.10679 42.3421 9.10679H40.1729V10.773H42.033C42.3239 10.773 42.4572 10.9063 42.4572 11.2154V15.6142H39.9487V17.2805H46.8561V15.6142V15.6082ZM43.2388 8.06463C43.6448 8.06463 43.9901 7.93133 44.2567 7.67685C44.5294 7.41631 44.6627 7.09518 44.6627 6.71952C44.6627 6.34385 44.5233 6.02272 44.2567 5.76824C43.9901 5.51982 43.6448 5.38652 43.2388 5.38652C42.8328 5.38652 42.5056 5.51376 42.233 5.76824C41.9603 6.02272 41.827 6.34385 41.827 6.71952C41.827 7.09518 41.9664 7.42237 42.233 7.67685C42.4996 7.93133 42.8389 8.06463 43.2388 8.06463ZM57.1807 7.01035H55.6962L55.4418 8.37364C55.3509 8.86443 55.0661 9.10073 54.5693 9.10073H50.7702V8.09493C50.7702 7.74956 50.8429 7.5072 50.9823 7.3739C51.1216 7.2406 51.3761 7.17395 51.7276 7.17395H53.5574V5.49558H51.5215C50.6854 5.49558 50.031 5.69553 49.5766 6.09543C49.1161 6.49533 48.8859 7.16789 48.8859 8.07675V9.09467H46.8561V10.7246H48.8859V18.1954C48.8859 18.5347 48.8131 18.771 48.6677 18.9104C48.5223 19.0497 48.2678 19.1164 47.9164 19.1164H46.5228V20.7947H48.1285C48.9767 20.7947 49.6311 20.5948 50.0855 20.1949C50.546 19.795 50.7763 19.1224 50.7763 18.2136V10.7246H55.3024V14.56C55.3024 15.5597 55.5448 16.2686 56.0295 16.6685C56.5082 17.0624 57.1504 17.2623 57.9563 17.2623H60.3193V15.5658H58.3622C57.926 15.5658 57.617 15.487 57.4473 15.3416C57.2837 15.1962 57.1989 14.9235 57.1989 14.5357V10.7306H60.3557V9.10073H57.1989V7.01035H57.1807ZM69.9593 11.5425C69.9593 13.3057 69.5049 14.7175 68.6142 15.7294C67.7235 16.7473 66.336 17.2623 64.5061 17.2623H61.7129V5.82277H64.5061C66.336 5.82277 67.7235 6.3378 68.6142 7.35572C69.5049 8.37364 69.9593 9.77935 69.9593 11.5425ZM63.6033 15.5052H64.4455C65.718 15.5052 66.645 15.1477 67.2085 14.4388C67.772 13.7238 68.0568 12.7483 68.0568 11.5425C68.0568 10.3368 67.772 9.36127 67.2085 8.6463C66.651 7.93739 65.718 7.57991 64.4455 7.57991H63.6033V15.5112V15.5052Z" fill="white"/>
</g>
<defs>
<linearGradient id="paint0_linear_154_135" x1="4.46109" y1="4.99867" x2="19.7086" y2="20.2525" gradientUnits="userSpaceOnUse">
<stop stop-color="white"/>
<stop offset="1" stop-color="white" stop-opacity="0.24"/>
</linearGradient>
<clipPath id="clip0_154_135">
<rect width="69.2492" height="24" fill="white" transform="translate(0.710144)"/>
</clipPath>
</defs>
</svg>
