<svg width="39" height="56" viewBox="0 0 39 56" fill="none" xmlns="http://www.w3.org/2000/svg">
<g clip-path="url(#clip0_152_709)">
<path d="M2.38539 13.9685C2.75765 12.9319 3.28455 11.9411 3.97181 11.0247C5.47232 17.3704 10.5867 21.4711 17.6081 21.3393H21.3136C23.8507 21.3393 25.672 21.9808 26.7888 23.2579C29.0682 25.7836 29.1655 31.1786 26.2046 33.4465C21.7031 36.9057 15.008 36.1726 11.188 31.9975C13.2269 32.6905 15.8442 33.0399 19.0399 33.0399C23.6961 33.0399 26.027 31.4821 26.027 28.3608C26.027 26.9519 25.6605 25.818 24.9217 24.9646C24.1829 24.1055 22.9802 23.6817 21.3136 23.6817C16.646 23.7447 12.4537 23.8421 8.58789 21.4081C5.60977 19.5926 3.55373 17.0898 2.39111 13.9685H2.38539ZM19.0056 30.6058C21.5312 30.5658 23.6216 30.3997 23.719 28.2634C23.719 27.5246 23.5472 26.9519 23.1978 26.5396C22.8542 26.1272 22.2128 25.921 21.2792 25.921H17.2473C10.8444 25.984 4.83661 23.2293 1.68668 17.8229C1.69813 20.4459 2.68893 23.1491 4.48152 25.188C4.73352 25.4858 5.05996 25.8065 5.3406 26.0871C7.43673 28.1432 10.8787 29.764 13.3013 30.2107C14.7732 30.4684 16.6746 30.6001 19.0056 30.6001V30.6058ZM25.7178 5.33197C28.1461 5.78441 31.5824 7.39947 33.6785 9.45551C33.8618 9.63305 34.0508 9.82205 34.234 10.0225C34.2741 10.0626 34.3085 10.1027 34.3486 10.1428C34.3486 10.1428 34.36 10.1542 34.3658 10.16C34.3658 10.16 34.36 10.1542 34.3543 10.1485C34.4173 10.2172 34.4803 10.2859 34.5376 10.3547C34.6006 10.4234 34.6579 10.4979 34.7151 10.5666C34.6922 10.5379 34.675 10.515 34.6521 10.4864C34.675 10.515 34.7037 10.5494 34.7266 10.578C34.7953 10.6582 34.8583 10.7384 34.927 10.8243C34.9385 10.8415 34.9557 10.8587 34.9671 10.8758C36.4905 12.8403 37.3267 15.3087 37.3324 17.7141C34.1768 12.3134 28.169 9.55287 21.7718 9.61587H17.7399C16.8063 9.61587 16.1706 9.40969 15.8213 8.99734C15.4719 8.58499 15.3001 8.01227 15.3001 7.27347C15.3975 5.13725 17.4879 4.97116 20.0135 4.93107C22.3445 4.93107 24.2402 5.06279 25.7178 5.32052V5.33197ZM33.9305 9.70751C33.9649 9.74187 34.005 9.78196 34.0393 9.81632C34.0279 9.80487 34.0164 9.79341 34.005 9.78196L33.9305 9.70751ZM21.411 16.6431H17.7399C14.5785 16.6431 12.2017 15.7783 10.621 14.043C9.04033 12.3076 8.24998 10.0569 8.24998 7.2792C8.24998 7.02148 8.26144 6.76948 8.27862 6.51749L5.98776 8.80834C6.25121 11.5287 7.24201 13.8196 8.96588 15.6809C11.0047 17.8801 13.9256 18.9797 17.7399 18.9797H21.3136C24.475 18.9797 26.8518 19.856 28.4324 21.6142C30.0131 23.3667 30.8035 25.6118 30.8035 28.3436C30.8035 28.5956 30.792 28.8419 30.7748 29.0882L33.0657 26.7973C32.7965 24.0998 31.8115 21.8204 30.1048 19.9591C28.0774 17.7484 25.1794 16.6431 21.411 16.6431ZM30.4656 14.2377C26.5998 11.8036 22.4075 11.901 17.7399 11.964C16.0733 11.964 14.8706 11.5345 14.1318 10.6811C13.393 9.82778 13.0264 8.6938 13.0264 7.28493C13.0264 4.16363 15.3574 2.60585 20.0135 2.60585C23.2093 2.60585 25.8266 2.95521 27.8655 3.64819C24.0455 -0.526896 17.3504 -1.25997 12.8489 2.1935C9.88795 4.46144 9.97958 9.85641 12.2647 12.3821C13.3815 13.6592 15.2085 14.3007 17.7399 14.3007H21.4453C28.4668 14.1747 33.5812 18.2696 35.0817 24.6153C35.7632 23.6989 36.2901 22.7081 36.6681 21.6715C35.5055 18.5502 33.4494 16.0475 30.4713 14.2319L30.4656 14.2377Z" fill="url(#paint0_linear_152_709)"/>
<path d="M8.11251 48.1195C8.37023 48.5318 8.49623 49.0644 8.49623 49.6944C8.49623 50.2729 8.34732 50.8112 8.05524 51.2866C7.76316 51.7619 7.33935 52.1399 6.79527 52.4205C6.25119 52.7012 5.59257 52.8386 4.83086 52.8386C4.06915 52.8386 3.39335 52.6954 2.82063 52.4205C2.24792 52.1399 1.78975 51.739 1.4633 51.2178C1.13685 50.7024 0.965037 50.0781 0.953583 49.3622V49.2763H2.82636V49.3622C2.83781 49.872 3.01535 50.3187 3.35898 50.6795C3.70261 51.0403 4.18942 51.2236 4.80795 51.2236C5.38066 51.2236 5.83311 51.0918 6.15383 50.8227C6.46882 50.5592 6.62345 50.227 6.62345 49.8032C6.62345 49.4482 6.53182 49.1561 6.34855 48.9213C6.15956 48.6864 5.86174 48.4688 5.46084 48.2741C5.04849 48.0794 4.51014 47.8732 3.85724 47.6613C2.96381 47.3749 2.29373 46.9683 1.86993 46.4529C1.44039 45.9374 1.22849 45.296 1.22849 44.5514C1.22849 43.6867 1.54348 42.9765 2.17346 42.4496C2.79772 41.9227 3.65679 41.6535 4.73922 41.6535C5.82165 41.6535 6.64636 41.9284 7.2878 42.4725C7.93497 43.0166 8.27287 43.784 8.29005 44.7519V44.8378H6.4001V44.7519C6.4001 44.5171 6.33137 44.2823 6.19965 44.0589C6.06792 43.8356 5.8732 43.6466 5.6212 43.4977C5.37494 43.3487 5.05994 43.2743 4.69341 43.2743C4.23524 43.2628 3.85152 43.3717 3.54225 43.6007C3.23871 43.8241 3.08981 44.1162 3.08981 44.4999C3.08981 44.9695 3.27308 45.3303 3.64534 45.5938C4.02906 45.8687 4.67623 46.1493 5.55248 46.4414C6.11374 46.6247 6.61773 46.848 7.05299 47.1115C7.49398 47.3749 7.84334 47.7186 8.10106 48.1309L8.11251 48.1195ZM16.2221 51.0804H13.8511V46.8308C13.8511 46.1837 13.6965 45.6969 13.3929 45.3933C13.0894 45.0898 12.6026 44.9352 11.9554 44.9352H9.90511V46.5101H11.6633C11.9382 46.5101 12.0642 46.6361 12.0642 46.9282V51.0861H9.6932V52.6611H16.2221V51.0861V51.0804ZM12.803 43.9501C13.1868 43.9501 13.5132 43.8241 13.7652 43.5836C14.0229 43.3373 14.1489 43.0338 14.1489 42.6787C14.1489 42.3236 14.0172 42.02 13.7652 41.7795C13.5132 41.539 13.1868 41.4187 12.803 41.4187C12.4193 41.4187 12.1101 41.539 11.8523 41.7795C11.5946 42.02 11.4686 42.3236 11.4686 42.6787C11.4686 43.0338 11.6003 43.343 11.8523 43.5836C12.1043 43.8241 12.425 43.9501 12.803 43.9501ZM25.9812 42.9536H24.578L24.3375 44.2422C24.2516 44.7061 23.9824 44.9294 23.5128 44.9294H19.9219V43.9787C19.9219 43.6523 19.9906 43.4232 20.1223 43.2972C20.2541 43.1712 20.4946 43.1082 20.8268 43.1082H22.5564V41.5218H20.632C19.8417 41.5218 19.2232 41.7108 18.7936 42.0888C18.3584 42.4668 18.1407 43.1025 18.1407 43.9616V44.9237H16.2221V46.4643H18.1407V53.5259C18.1407 53.8466 18.072 54.07 17.9346 54.2017C17.7971 54.3334 17.5566 54.3964 17.2244 54.3964H15.9072V55.9828H17.4248C18.2266 55.9828 18.8452 55.7938 19.2747 55.4158C19.71 55.0378 19.9276 54.4021 19.9276 53.5431V46.4643H24.2058V50.0896C24.2058 51.0346 24.4349 51.7046 24.893 52.0826C25.3455 52.4549 25.9526 52.6439 26.7143 52.6439H28.9479V51.0403H27.098C26.6856 51.0403 26.3936 50.9658 26.2332 50.8284C26.0786 50.6909 25.9984 50.4332 25.9984 50.0667V46.47H28.9822V44.9294H25.9984V42.9536H25.9812ZM38.0597 47.2375C38.0597 48.9041 37.6302 50.2385 36.7883 51.1949C35.9464 52.1571 34.6349 52.6439 32.9053 52.6439H30.2651V41.8253H32.9053C34.6349 41.8253 35.9464 42.3121 36.7883 43.2743C37.6302 44.2365 38.0597 45.5652 38.0597 47.2318V47.2375ZM35.4539 44.4999C34.927 43.8298 34.045 43.4919 32.8423 43.4919H32.0462V50.9888H32.8423C34.045 50.9888 34.927 50.6509 35.4539 49.9808C35.9865 49.305 36.2557 48.3829 36.2557 47.2432C36.2557 46.1035 35.9865 45.1814 35.4539 44.5056V44.4999Z" fill="#131414"/>
</g>
<defs>
<linearGradient id="paint0_linear_152_709" x1="8.51059" y1="6.25882" x2="31.0752" y2="28.7488" gradientUnits="userSpaceOnUse">
<stop stop-color="#D500F9"/>
<stop offset="1" stop-color="#00E5FF"/>
</linearGradient>
<clipPath id="clip0_152_709">
<rect width="37.1004" height="56" fill="white" transform="translate(0.95932)"/>
</clipPath>
</defs>
</svg>
